<svg xmlns="http://www.w3.org/2000/svg" width="17" height="17" viewBox="0 0 17 17">
    <g fill="none" fill-rule="evenodd">
        <g fill="#000" fill-rule="nonzero">
            <g>
                <path d="M6.679 0C3.002 0 0 3.002 0 6.679c0 3.676 3.002 6.679 6.679 6.679 1.474 0 2.84-.482 3.946-1.297l4.65 4.643c.394.395 1.033.395 1.429 0 .395-.396.395-1.035 0-1.43l-4.643-4.649c.815-1.106 1.297-2.473 1.297-3.946C13.358 3.002 10.356 0 6.678 0zm0 2.024c2.583 0 4.655 2.072 4.655 4.655s-2.072 4.655-4.655 4.655-4.655-2.072-4.655-4.655 2.072-4.655 4.655-4.655z" transform="translate(-1224.000000, -36.000000) translate(1002.000000, 20.000000) translate(222.000000, 16.000000)"/>
            </g>
        </g>
    </g>
</svg>
